<?xml version="1.0" encoding="utf-8"?>
<!-- Generator: Adobe Illustrator 16.0.0, SVG Export Plug-In . SVG Version: 6.00 Build 0)  -->
<!DOCTYPE svg PUBLIC "-//W3C//DTD SVG 1.1//EN" "http://www.w3.org/Graphics/SVG/1.1/DTD/svg11.dtd">
<svg version="1.1" id="Layer_1" xmlns="http://www.w3.org/2000/svg" xmlns:xlink="http://www.w3.org/1999/xlink" x="0px" y="0px"
	 width="100px" height="100px" viewBox="-26 -26 100 100" enable-background="new -26 -26 100 100" xml:space="preserve">
<circle fill="#D4AF37" cx="24" cy="19.358" r="45.215"/>
<g>
	<path fill="#FFFFFF" d="M41.107,34.666c0,2.556,0.157,5.445,0.466,8.663c-3.064-0.134-8.232-0.196-15.507-0.196
		c-8.662,0-15.209,0.062-19.64,0.196V41.97c1.631-0.064,2.815-0.239,3.555-0.523c0.737-0.291,1.246-0.82,1.521-1.59
		c0.278-0.771,0.414-2.009,0.414-3.704V2.562c0-1.697-0.136-2.931-0.414-3.705c-0.274-0.77-0.783-1.299-1.521-1.588
		c-0.739-0.283-1.924-0.46-3.555-0.528v-1.355c4.43,0.133,10.978,0.2,19.64,0.2c6.634,0,11.353-0.067,14.151-0.2
		c-0.309,2.955-0.459,5.623-0.459,8.002c0,1.764,0.063,3.166,0.195,4.2h-1.555c-0.329-2.933-0.745-5.113-1.242-6.547
		c-0.494-1.433-1.335-2.476-2.513-3.125c-1.176-0.65-2.956-0.976-5.339-0.976h-5.619c-1.631,0-2.818,0.132-3.555,0.396
		c-0.739,0.265-1.246,0.779-1.52,1.538c-0.274,0.761-0.414,1.991-0.414,3.688v15.969h4.499c2.268,0,3.775-0.676,4.527-2.034
		c0.749-1.354,1.211-2.736,1.388-4.147c0.178-1.411,0.299-2.328,0.367-2.746h1.551c-0.152,2.225-0.23,4.352-0.23,6.381l0.033,3.24
		c0,2.292,0.134,5.5,0.395,9.622h-1.553c-0.041-0.309-0.169-1.398-0.381-3.272c-0.208-1.875-0.82-3.293-1.835-4.251
		c-1.014-0.957-2.437-1.436-4.262-1.436h-4.499v16.265c0,1.695,0.14,2.927,0.414,3.689c0.274,0.76,0.781,1.269,1.52,1.534
		c0.737,0.266,1.924,0.397,3.555,0.397h4.959c2.82,0,4.962-0.373,6.431-1.124c1.464-0.75,2.521-1.951,3.17-3.604
		c0.653-1.654,1.151-4.076,1.512-7.273h1.551C41.178,30.985,41.107,32.614,41.107,34.666z"/>
</g>
<polyline fill="#D4AF37" points="31.1,63.569 24,72.481 16.9,63.569 "/>
</svg>
